# xmcd
#
# Track frame offsets:
#	150
#	10444
#	22040
#	36266
#	49430
#	61649
#	73990
#	86335
#	99132
#	112591
#	123990
#	136090
#	152251
#	164308
#	178250
#	194839
#	206040
#	218032
#	231876
#
# Disc length: 3277 seconds
#
# Revision: 0
# Processed by: cddbd v1.5.1PL2 Copyright (c) Steve Scherf et al.
# Submitted via: dBpowerAMP V4.0
#
DISCID=030ccb13
DTITLE=Various Artist - Die schönsten Country and Western Hits
DYEAR=1900
DGENRE=Country
TTITLE0=Help me make it through the night
TTITLE1=Mabel, you have been a friend to me
TTITLE2=Why can't woman have a good beer drinking song
TTITLE3=Diane (do the wrong again with me)
TTITLE4=Rollin' on - We gone
TTITLE5=I need a friend
TTITLE6=Out of the clesr blue sky
TTITLE7=Hardscuffle Road
TTITLE8=If only for a moment
TTITLE9=You'd better take it
TTITLE10=Linda's red dress
TTITLE11=If I had the chance
TTITLE12=Money greases the wheels
TTITLE13=I was Country before Barbara Mandrell
TTITLE14=Me and Bobby McGee
TTITLE15=Get me back to Tennessee
TTITLE16=I always did like Leavenworth
TTITLE17=The Hour of separation
TTITLE18=Bonus Track: All the way 'cross Texas
EXTD=
EXTT0=
EXTT1=
EXTT2=
EXTT3=
EXTT4=
EXTT5=
EXTT6=
EXTT7=
EXTT8=
EXTT9=
EXTT10=
EXTT11=
EXTT12=
EXTT13=
EXTT14=
EXTT15=
EXTT16=
EXTT17=
EXTT18=
PLAYORDER=
